<svg xmlns="http://www.w3.org/2000/svg" width="1240" height="840" viewBox="0 0 1240 840">
<defs><marker id="a" viewBox="0 0 10 10" refX="9" refY="5" markerWidth="6" markerHeight="6" orient="auto"><path d="M0,1 L9,5 L0,9" fill="none" stroke="#57606A" stroke-width="1.4"/></marker><marker id="g" viewBox="0 0 10 10" refX="9" refY="5" markerWidth="6" markerHeight="6" orient="auto"><path d="M0,1 L9,5 L0,9" fill="none" stroke="#1A7F37" stroke-width="1.4"/></marker><marker id="r" viewBox="0 0 10 10" refX="9" refY="5" markerWidth="6" markerHeight="6" orient="auto"><path d="M0,1 L9,5 L0,9" fill="none" stroke="#A0111F" stroke-width="1.4"/></marker></defs>
<rect width="1240" height="840" fill="#fff"/>
<rect x="40" y="40" width="1160" height="110" rx="6" fill="none" stroke="#D6DBE0" stroke-dasharray="4 4"/>
<circle cx="62" cy="62" r="12" fill="#16191D"/>
<text x="62" y="66" font-family="IBM Plex Mono,monospace" font-size="12" font-weight="600" fill="#fff" text-anchor="middle">1</text>
<text x="84" y="67" font-family="Public Sans,sans-serif" font-size="15" font-weight="600" fill="#16191D">A pull request lands, and the work is handed off</text>
<rect x="70" y="78" width="180" height="54" rx="5" fill="#fff" stroke="#16191D"/>
<text x="160.0" y="101.0" font-family="Public Sans,sans-serif" font-size="13" font-weight="600" fill="#16191D" text-anchor="middle">GitHub</text>
<text x="160.0" y="119.0" font-family="IBM Plex Mono,monospace" font-size="10.5" fill="#57606A" text-anchor="middle">pull_request webhook</text>
<rect x="300" y="78" width="170" height="54" rx="5" fill="#E8F0FE" stroke="#4285F4"/>
<text x="385.0" y="101.0" font-family="Public Sans,sans-serif" font-size="13" font-weight="600" fill="#16191D" text-anchor="middle">Pub/Sub</text>
<text x="385.0" y="119.0" font-family="IBM Plex Mono,monospace" font-size="10.5" fill="#57606A" text-anchor="middle">a11y-events</text>
<rect x="520" y="78" width="210" height="54" rx="5" fill="#E8F0FE" stroke="#4285F4"/>
<text x="625.0" y="101.0" font-family="Public Sans,sans-serif" font-size="13" font-weight="600" fill="#16191D" text-anchor="middle">Cloud Run service</text>
<text x="625.0" y="119.0" font-family="IBM Plex Mono,monospace" font-size="10.5" fill="#57606A" text-anchor="middle">answers in milliseconds</text>
<rect x="780" y="78" width="210" height="54" rx="5" fill="#E8F0FE" stroke="#4285F4"/>
<text x="885.0" y="101.0" font-family="Public Sans,sans-serif" font-size="13" font-weight="600" fill="#16191D" text-anchor="middle">Cloud Run Job</text>
<text x="885.0" y="119.0" font-family="IBM Plex Mono,monospace" font-size="10.5" fill="#57606A" text-anchor="middle">one run per pull request</text>
<path d="M250,105 L297,105" fill="none" stroke="#57606A" stroke-width="1.4" marker-end="url(#a)" stroke-dasharray=""/>
<path d="M470,105 L517,105" fill="none" stroke="#57606A" stroke-width="1.4" marker-end="url(#a)" stroke-dasharray=""/>
<path d="M730,105 L777,105" fill="none" stroke="#57606A" stroke-width="1.4" marker-end="url(#a)" stroke-dasharray=""/>
<text x="753.5" y="99.0" font-family="IBM Plex Mono,monospace" font-size="10" fill="#68717B" text-anchor="middle">starts</text>
<text x="1010" y="100" font-family="Public Sans,sans-serif" font-size="11.5" fill="#57606A">A webhook must answer at once.</text>
<text x="1010" y="116" font-family="Public Sans,sans-serif" font-size="11.5" fill="#57606A">Scanning takes minutes, so the</text>
<text x="1010" y="132" font-family="Public Sans,sans-serif" font-size="11.5" fill="#57606A">queue separates the two.</text>
<rect x="40" y="170" width="1160" height="405" rx="6" fill="none" stroke="#D6DBE0" stroke-dasharray="4 4"/>
<circle cx="62" cy="192" r="12" fill="#16191D"/>
<text x="62" y="196" font-family="IBM Plex Mono,monospace" font-size="12" font-weight="600" fill="#fff" text-anchor="middle">2</text>
<text x="84" y="197" font-family="Public Sans,sans-serif" font-size="15" font-weight="600" fill="#16191D">For every violation: patch it, then prove the patch worked</text>
<rect x="70" y="290" width="175" height="72" rx="5" fill="#F7F8F9" stroke="#D6DBE0"/>
<text x="157.5" y="322.0" font-family="Public Sans,sans-serif" font-size="13" font-weight="600" fill="#16191D" text-anchor="middle">The PR's branch</text>
<text x="157.5" y="340.0" font-family="IBM Plex Mono,monospace" font-size="10.5" fill="#57606A" text-anchor="middle">cloned and served</text>
<circle cx="560" cy="400" r="132" fill="none" stroke="#D6DBE0" stroke-width="1.2" stroke-dasharray="3 5"/>
<rect x="468" y="244" width="184" height="48" rx="5" fill="#fff" stroke="#16191D"/>
<text x="560.0" y="264.0" font-family="Public Sans,sans-serif" font-size="13" font-weight="600" fill="#16191D" text-anchor="middle">locate</text>
<text x="560.0" y="282.0" font-family="IBM Plex Mono,monospace" font-size="10.5" fill="#57606A" text-anchor="middle">find the source line</text>
<rect x="600" y="376" width="184" height="48" rx="5" fill="#fff" stroke="#16191D"/>
<text x="692.0" y="396.0" font-family="Public Sans,sans-serif" font-size="13" font-weight="600" fill="#16191D" text-anchor="middle">propose</text>
<text x="692.0" y="414.0" font-family="IBM Plex Mono,monospace" font-size="10.5" fill="#57606A" text-anchor="middle">ask Gemini for one edit</text>
<rect x="468" y="508" width="184" height="48" rx="5" fill="#fff" stroke="#16191D"/>
<text x="560.0" y="528.0" font-family="Public Sans,sans-serif" font-size="13" font-weight="600" fill="#16191D" text-anchor="middle">apply</text>
<text x="560.0" y="546.0" font-family="IBM Plex Mono,monospace" font-size="10.5" fill="#57606A" text-anchor="middle">write it to the file</text>
<rect x="336" y="376" width="184" height="48" rx="5" fill="#fff" stroke="#16191D"/>
<text x="428.0" y="396.0" font-family="Public Sans,sans-serif" font-size="13" font-weight="600" fill="#16191D" text-anchor="middle">verify</text>
<text x="428.0" y="414.0" font-family="IBM Plex Mono,monospace" font-size="10.5" fill="#57606A" text-anchor="middle">re-render, re-scan</text>
<path d="M619,280 A134,134 0 0,1 680,341" fill="none" stroke="#57606A" stroke-width="1.4" marker-end="url(#a)"/>
<path d="M680,459 A134,134 0 0,1 619,520" fill="none" stroke="#57606A" stroke-width="1.4" marker-end="url(#a)"/>
<path d="M501,520 A134,134 0 0,1 440,459" fill="none" stroke="#57606A" stroke-width="1.4" marker-end="url(#a)"/>
<path d="M440,341 A134,134 0 0,1 501,280" fill="none" stroke="#57606A" stroke-width="1.4" marker-end="url(#a)"/>
<text x="560" y="342" font-family="IBM Plex Mono,monospace" font-size="11" fill="#68717B" text-anchor="middle">repeated once</text>
<text x="560" y="357" font-family="IBM Plex Mono,monospace" font-size="11" fill="#68717B" text-anchor="middle">per violation</text>
<path d="M245,326 L462,376" fill="none" stroke="#57606A" stroke-width="1.4" marker-end="url(#a)" stroke-dasharray=""/>
<rect x="950" y="282" width="230" height="58" rx="5" fill="#E8F0FE" stroke="#4285F4"/>
<text x="1065.0" y="307.0" font-family="Public Sans,sans-serif" font-size="13" font-weight="600" fill="#16191D" text-anchor="middle">Vertex AI</text>
<text x="1065.0" y="325.0" font-family="IBM Plex Mono,monospace" font-size="10.5" fill="#57606A" text-anchor="middle">Gemini 3.5 Flash</text>
<rect x="950" y="452" width="230" height="58" rx="5" fill="#E8F0FE" stroke="#4285F4"/>
<text x="1065.0" y="477.0" font-family="Public Sans,sans-serif" font-size="13" font-weight="600" fill="#16191D" text-anchor="middle">Firestore</text>
<text x="1065.0" y="495.0" font-family="IBM Plex Mono,monospace" font-size="10.5" fill="#57606A" text-anchor="middle">every step, as it happens</text>
<path d="M742,382 L947,318" fill="none" stroke="#57606A" stroke-width="1.4" marker-end="url(#a)" stroke-dasharray=""/>
<text x="846" y="340" font-family="IBM Plex Mono,monospace" font-size="10" fill="#68717B" text-anchor="middle">element + screenshot</text>
<path d="M947,332 L748,400" fill="none" stroke="#57606A" stroke-width="1.4" marker-end="url(#a)" stroke-dasharray=""/>
<text x="856" y="390" font-family="IBM Plex Mono,monospace" font-size="10" fill="#68717B" text-anchor="middle">one-line edit + reason</text>
<path d="M560,556 L560,536 L900,536 L900,481 L947,481" fill="none" stroke="#57606A" stroke-width="1.4" marker-end="url(#a)" stroke-dasharray="4 3"/>
<rect x="70" y="452" width="175" height="72" rx="5" fill="#FCEDEE" stroke="#A0111F"/>
<text x="157.5" y="484.0" font-family="Public Sans,sans-serif" font-size="13" font-weight="600" fill="#A0111F" text-anchor="middle">A patch that fails</text>
<text x="157.5" y="502.0" font-family="IBM Plex Mono,monospace" font-size="10.5" fill="#57606A" text-anchor="middle">is reverted</text>
<rect x="40" y="598" width="1160" height="212" rx="6" fill="none" stroke="#D6DBE0" stroke-dasharray="4 4"/>
<circle cx="62" cy="620" r="12" fill="#16191D"/>
<text x="62" y="624" font-family="IBM Plex Mono,monospace" font-size="12" font-weight="600" fill="#fff" text-anchor="middle">3</text>
<text x="84" y="625" font-family="Public Sans,sans-serif" font-size="15" font-weight="600" fill="#16191D">One final check on the whole page, then the gate</text>
<rect x="70" y="650" width="300" height="64" rx="5" fill="#fff" stroke="#16191D"/>
<text x="220.0" y="678.0" font-family="Public Sans,sans-serif" font-size="13" font-weight="600" fill="#16191D" text-anchor="middle">Re-scan the whole page</text>
<text x="220.0" y="696.0" font-family="IBM Plex Mono,monospace" font-size="10.5" fill="#57606A" text-anchor="middle">catches a patch undoing an earlier fix</text>
<rect x="430" y="645" width="250" height="74" rx="5" fill="#F7F8F9" stroke="#16191D"/>
<text x="555.0" y="678.0" font-family="Public Sans,sans-serif" font-size="13" font-weight="600" fill="#16191D" text-anchor="middle">Is the tree exactly</text>
<text x="555.0" y="696.0" font-family="IBM Plex Mono,monospace" font-size="10.5" fill="#57606A" text-anchor="middle">the patches that passed?</text>
<rect x="770" y="625" width="190" height="58" rx="5" fill="#FCEDEE" stroke="#A0111F"/>
<text x="865.0" y="650.0" font-family="Public Sans,sans-serif" font-size="13" font-weight="600" fill="#A0111F" text-anchor="middle">No pull request</text>
<text x="865.0" y="668.0" font-family="IBM Plex Mono,monospace" font-size="10.5" fill="#57606A" text-anchor="middle">recorded as unsafe</text>
<rect x="770" y="710" width="190" height="58" rx="5" fill="#E8F5EC" stroke="#1A7F37"/>
<text x="865.0" y="735.0" font-family="Public Sans,sans-serif" font-size="13" font-weight="600" fill="#1A7F37" text-anchor="middle">Commit and push</text>
<text x="865.0" y="753.0" font-family="IBM Plex Mono,monospace" font-size="10.5" fill="#57606A" text-anchor="middle">then open the PR</text>
<rect x="1010" y="667" width="180" height="58" rx="5" fill="#fff" stroke="#16191D"/>
<text x="1100.0" y="692.0" font-family="Public Sans,sans-serif" font-size="13" font-weight="600" fill="#16191D" text-anchor="middle">A human merges it</text>
<text x="1100.0" y="710.0" font-family="IBM Plex Mono,monospace" font-size="10.5" fill="#57606A" text-anchor="middle">or does not</text>
<path d="M370,682 L427,682" fill="none" stroke="#57606A" stroke-width="1.4" marker-end="url(#a)" stroke-dasharray=""/>
<path d="M680,666 L725,666 L725,654 L767,654" fill="none" stroke="#A0111F" stroke-width="1.4" marker-end="url(#r)"/>
<text x="725" y="646" font-family="IBM Plex Mono,monospace" font-size="10" fill="#A0111F" text-anchor="middle">no</text>
<path d="M680,698 L725,698 L725,739 L767,739" fill="none" stroke="#1A7F37" stroke-width="1.4" marker-end="url(#g)"/>
<text x="742" y="724" font-family="IBM Plex Mono,monospace" font-size="10" fill="#1A7F37">yes</text>
<path d="M960,739 L985,739 L985,696 L1007,696" fill="none" stroke="#1A7F37" stroke-width="1.4" marker-end="url(#g)"/>
<path d="M560,578 L560,647" fill="none" stroke="#57606A" stroke-width="1.4" marker-end="url(#a)" stroke-dasharray=""/>
<text x="40" y="828" font-family="IBM Plex Mono,monospace" font-size="11" fill="#68717B">Blue = Google Cloud managed service   ·   white = this project's code   ·   green = shipped   ·   red = refused</text>
</svg>